<?xml version="1.0" encoding="utf-8"?>
<!-- Generator: Adobe Illustrator 23.1.1, SVG Export Plug-In . SVG Version: 6.00 Build 0)  -->
<svg version="1.1" id="Layer_1" xmlns="http://www.w3.org/2000/svg" xmlns:xlink="http://www.w3.org/1999/xlink" x="0px" y="0px"
	 viewBox="0 0 300 300" style="enable-background:new 0 0 300 300;" xml:space="preserve">
<style type="text/css">
	.st0{fill:#EE444A;}
</style>
<g>
	<g>
		<g>
			<g>
				<g>
					<g>
						<path class="st0" d="M10.4,43.7c-0.8,0.4-2.3,1.6-1.8,1.7l2.8-1.7L10.4,43.7z"/>
						<path class="st0" d="M6.9,49.3c1.6-0.6,4.1-1.8,6.4-3.8c-2.8,1.5-1.8,0.6-5.2,2.5c-0.5-0.1,0.5-1.1,1.5-1.8
							c-0.8,0.4,0.3-0.9-1.6,0.2c-1.8,1.9-1.5,2.4,0.6,1.7C8.2,48.6,7.4,49,6.9,49.3z"/>
						<path class="st0" d="M23.6,81.6l0.2-0.4C23.6,81.4,23.6,81.5,23.6,81.6z"/>
						<path class="st0" d="M35.1,100.8c-0.2-0.1-0.5,0-0.7,0.2C34.6,101,34.9,101,35.1,100.8z"/>
						<path class="st0" d="M34.3,106c0-0.1,0-0.2,0-0.3C34.2,106,34.1,106.1,34.3,106z"/>
						<path class="st0" d="M23.6,81.6l-0.5,1.1C24,82.1,23.6,82,23.6,81.6z"/>
						<path class="st0" d="M16.2,48.7c-0.2,0-0.5,0.1-0.9,0.2c0.2,0,0.3,0,0.5,0C16,48.9,16.1,48.8,16.2,48.7z"/>
						<path class="st0" d="M15.7,75.2L15.6,75c-0.3,0.2-0.7,0.4-1.2,0.7L15.7,75.2z"/>
						<path class="st0" d="M10.9,69.3c0,0.2,2.3-1.4,3.4-2c-1,0.6-1.5,0.8-1.8,0.8C12,68.4,11.5,68.8,10.9,69.3z"/>
						<path class="st0" d="M8,56.7l-0.4,0C7.7,56.7,7.8,56.7,8,56.7z"/>
						<path class="st0" d="M18.4,79.9c-0.3,0.2-0.6,0.5-0.8,0.6C17.9,80.3,18.1,80.1,18.4,79.9z"/>
						<path class="st0" d="M158.3,239.4c-0.2,0.1-0.3,0.2-0.4,0.3C158.1,239.6,158.3,239.5,158.3,239.4z"/>
						<path class="st0" d="M152,254.7l-0.2,0c-0.4,0.3-0.9,0.6-1.3,0.9L152,254.7z"/>
						<path class="st0" d="M35.5,113.8C35.5,113.8,35.5,113.8,35.5,113.8C35.1,113.8,35.2,113.8,35.5,113.8z"/>
						<path class="st0" d="M74.3,164.7c1.6-2.1,3.3-0.9,4.9-3.4C78.5,162,75.2,163,74.3,164.7z"/>
						<path class="st0" d="M16.1,49.1c0.1,0.1,0.2,0.1,0.2,0.2C16.3,49.1,16.2,49.1,16.1,49.1z"/>
						<path class="st0" d="M79.3,161.3C79.3,161.2,79.3,161.2,79.3,161.3l0.2-0.3C79.4,161.1,79.4,161.2,79.3,161.3z"/>
						<path class="st0" d="M46.2,125.9c0.4-0.3,0.7-0.6,0.9-0.8C46.8,125.2,46.6,125.4,46.2,125.9z"/>
						<path class="st0" d="M42.5,113.8l-0.1,0.5C42.5,114.1,42.5,113.9,42.5,113.8z"/>
						<path class="st0" d="M53,128.6c-0.1,0.3-0.4,0.5,0.1,0.5c0.1-0.1,0.2-0.2,0.2-0.2C53,129,52.8,129.1,53,128.6z"/>
						<path class="st0" d="M56.8,133.9c0.2-0.1,0.3-0.3,0.4-0.4c-0.1,0-0.2-0.1-0.2-0.1L56.8,133.9z"/>
						<path class="st0" d="M145.7,224.2c-0.6,0.6-1.2,1.1-1.9,1.7C145.4,224.7,146.6,225.1,145.7,224.2z"/>
						<path class="st0" d="M15,49.6c0.6-0.4,0.9-0.5,1.1-0.5C16,49,15.9,49,15.8,49C15.5,49.2,15.1,49.4,15,49.6z"/>
						<path class="st0" d="M71.2,116l0.3,1.1C71.5,116.7,71.4,116.3,71.2,116z"/>
						<path class="st0" d="M118.4,186.7h0.4C118.8,186.6,118.7,186.6,118.4,186.7z"/>
						<path class="st0" d="M73.6,119.3c-0.7,0.7-1.1,1.2-1.2,1.6c0.2-0.1,0.4-0.2,0.7-0.3L73.6,119.3z"/>
						<path class="st0" d="M143.8,226C143.8,226,143.9,225.9,143.8,226L143.8,226z"/>
						<path class="st0" d="M153.2,227.6c-0.5-0.8-3.2,1.7-5.1,2.8c-1.5-0.3,1.9-2,3.2-3.4c-1.2,0-4.3,1.5-4.5,1
							c0.5-0.4,0.6-0.6,1.3-0.9c-2.8,1.1-1.4-1.8-5-0.4c0.2-0.2,0.5-0.4,0.7-0.6c-1.4,1.2-2.9,2.3-4.1,3.1c-0.3-0.3-2.4,0.7-0.5-0.8
							c0.1,0.3,0.9-0.3,1.6-0.6l-1.1,0.2c2.6-2.4,1.3-0.2,3.4-1.7c-1.4-0.1-4.4,0.8-4-0.4c2.7-2.1,1.9,0.6,3.8-1.9l-0.4,1.6
							c3.9-3.8,0.1,0.7,4.3-3.2c0-1.7-2.3-0.3-2.3-2c-1.7,0.8-2.2,1.7-3.9,2.6c-3.9,0.4,6-6.2,1.5-4.8c-2.1,1-5.6,3.4-4.4,1.2
							l3.3-1.9c-0.5-1.3-4.9,2.6-3.7-0.1c1.4-0.7,1.6,0.1,1.9-0.3c1.9-2.5-2.1,0.7-2.6,0.2l2.7-2.1c-1.3-0.9-4.2-0.7-5.6-1.7
							c0.9-0.5,1.9-0.9,2.5-1.8c-2.6-0.6-2.2-3.7-1.6-6.5l-2.8,1.1c-0.1-0.2,0.9-1,1.5-1.2c0.5-1.3-1.5,1.1-2.7,1.4
							c-0.4-0.2,1-1.4,1.9-1.7c-2.8,0.4-6.6,0-4.8-3l0.9-0.3c0.3-1.6-5.6,2.5-4,0.1l0.5-0.1c-0.3-2.7-4.1-3.2-1.5-7.3
							c-3.6,2.2,0.2-3-4.7,0.3c1.6-2.8,2.7-3.1,3.2-5.8c-0.1-0.6-3.4,1.5-4.3,1.4l2.5-1.8l-3.1,1.2l2.7-2.5l-1,0
							c0,0.3-0.8,1.2-1.6,1.7c-1.7,0.1,0.4-3.1,1.7-4l-3.4-0.3c1-0.7,1.6-0.6,2.4-0.9c-3.2,0.9,2.5-2.1-0.4-1.3
							c-0.5,0.5-1.5,1-2.1,1.4c1.2-1.5,0.5-2.5-0.7-2.8l1.8-1.1c-0.5-1.6-2.8-2.2-3.8-3.7c-0.4,1.1-3.5,3.1-4.1,2.9l2.5-2.1
							c-1.8,0.9-0.7,1.2-3.1,2c-0.1-0.8,2.8-2.5,3.8-2.8l-1.4,0c0.8-0.6,1.3-0.7,2.3-1.4c-1.8,0.9,1.8-3.1-1.3-1.4l0.8-0.6
							c-1-1.5-2.4-1.5-3.4-2.6c-2.3,1.6-2.1,0.8-4.2,1.7c0.1-1.4,1.2-3.7,0.2-4.6c-1.7,0.1-2.1,1.2-3.7,1.8c2-1.5,1.1-2.5,3-3
							c-1.3-1-1.6-1.3-4.4-1.8c-0.7,0.8-1,1.2-1.7,1.6c-0.6-0.1,0.4-1.3,1.4-2l0.3-0.1c-4.4,0.4,3.1-8.6-2.3-6.9l0.3-0.1l-3.3,0.1
							c-0.1-0.9,1.9-0.7,2.8-2.1c-4.6,0.9-1.3-2.9-4.6-2.6c5.4-5.4-3.1-3.4-0.1-7.6l-1.4,1.1c-1.7,0.6,0.5-1,0.7-1.5
							c-1.1,0.8-1,1.3-2,1.7c-3.9-1.8-2.4-7.8-3.3-11.9c-0.4-1.4-8,4.7-5.5,0.8l3-1.5c-4.9,0-3.3-4.8-7.6-5.1
							c0.7-0.3,1.5-0.9,1.7-0.7c1.6-1.9-1.2-1.8-2.8-0.7c-0.1-0.5,1.4-1.1,2-1.9c0.8-1.3-3.3,0.6-1.6-1.1c0.3-0.3,0.7-0.3,0.9-0.3
							c-1.2,0.4-0.8-1.6-2.8,0.3c0.5-1.6-2.2-0.9-1.3-2.5c-2.8,1.4,0.2-2.3-3.5,0.1c3.7-2.6,1.9-3.6-0.2-2.9
							c1.2-0.6,0.8-1.3,2.5-2.2c-0.5-0.6-1.6-0.7-3.4,0.8c3.6-4.3-5.2,0.3,0-4.4c-3.3-0.4-5.8-1.1-7.9-2.2c3.7-2.6,1.7,1.6,5.5-1.3
							c-2.6-0.5-6.4,0.9-6.6-1.3c0.2-0.8,1.8-0.9,2.5-1.2c-2.6-0.5-1.8-3.2-4.8-3.2c0.3-0.2,0.8-0.4,1.2-0.4c-0.3-0.2,0.1-1-1.6,0.2
							l0.6-0.1c-2.1,2.2-5.8,2.5-7.2,3.4c5.1-2.9,0.2-2.2,6.8-5.8c-0.4,0-1.4,0.4-2.5,1.2c0.1-0.5,0.7-1.1,2.2-1.7
							c-1.6-0.3-3.1,1.3-3.7,0.4c0.8-0.6,1.2-0.6,2.3-1.2c-1.9,0.7-3.8,1.3-3.6,0.1c0.5-0.3,1.1-0.8,1.2-0.6
							c-1.2-1.1-5.8,0.8-5.2-1.7c3.8-2.1,0.8-1.3,3.8-3.6l-1.5-0.1l-1.3,1.4c-0.4-0.7-3,0.3-2.5-1l1.6-0.4l-1.5-0.8L45.1,94
							c-2,0.4-3.8,2.8-3.6,1.3c0.4,0-0.4-0.7,1.1-2.3c0,0,0,0,0,0c-1.2,0.4-2.5,0.8-2.1-0.3c0.9-0.8,3.4-2.3,4-2.8
							c-2.8,1.5-1.8-1.1-4.8,0.5c0.7-0.3,2.3-1.4,2.6-1.7l-2.3,1.2c0.4-0.8,0.7-1.1,2-1.9c-0.3-1.2-3.6,3.1-2.8,0.8
							c0.2,0,0.5-0.3,1-0.3c0.1-1.7-2.8-1.2-2.5-2.9c2.8-2.5,1.4,0.3,3.7-1.8c-1.6-1.1-5.8-0.4-6.1-2.3l-0.2,0.5
							c-4.5,2.9,1.4-2.6-1.2-1.8c0.4-0.1,2.6-1.5,2-1.2c0-1.5-2.5-1.2-4.9-1.7l1.2-0.6c0.6-1.3-0.5-1.9-0.4-2.9
							c-1.2,0.6-1.3,0.1-2.8,1.5c5-6.4-6-1.2-1.9-6.7c0.2,0.2,1.3-0.2,1.2-0.4l-2-0.7c-1.8,1.5-1,1-2.2,2.3
							c-1.2,0.6-2.4,0.8-2.6,0.5c1.7-0.2,3-2.2,3.9-3.2c-0.5,0.5-1.2,0.8-1.8,1.3c2.8-3.1-3.9,2.6-2.4-0.1l1-0.7
							c-0.8,0-2.3,0.6-2.4-0.1c2-1.7,1.3-0.3,3.1-1.6c-0.5-0.5-4.9,1.8-3.1-0.3c0.8-0.2,1,0.2,1.8,0c2.1-2.4,1.5-2,1.5-2.7l0,0.1
							l0.5-1.8l-0.5,0.8c-6.2,3.3-2.1-0.7-6.5,0.9c4.2-1.6,2.1-1.3,4.7-3c0.5-0.7,1-1.7,1.8-2c-2.3,1,1-1.9-2.4-0.5
							c0.8-0.6-0.3-0.5,1.8-1.9c-1-0.2-1.3,1.1-2.3,1.8c-3.4,1,1.7-4.5-2.9-3.2c-2.4-0.1-5.2,1.6-7.3,1.5c1-1.3,3.1-1.8,3.1-1.8
							c0.8-1.4,0.2-1.7-1.1-1.6c0.8-0.4,1.3-0.9,2.1-1.7c-0.5-0.3-3.1,1.8-2.3,0.4c1-0.5,2.5-1.4,3.5-1.8c-1.1,0-2.9,0.5-4,0.5
							c1.3-1.1,2.3-1.2,3.4-1.6c-1.1-0.2-2.4-0.7-4.7,0.7l-0.5,0.9c-0.3-0.1,1.8-1.5,2.3-1.6c2.1-0.7-0.2,1.3-1,1.9l-0.8,0
							c-4.4,3.7,1.8,1,2.1,2l-3.6,2.1l3.4-1.2c-0.8,0.8-2.6,2.3-3.4,2.2c-1.3,1.8,1.6-0.4,0,1.4c-0.2,0.3-0.4,0.3-0.6,0.4l1.4-0.2
							c-0.8,0.4-2.3,1.8-2.1,1.1C6,60,10.9,57.4,8.6,59.6l-0.3,0.1c2.1,0.5,2.6-1.7,6.2-2.7l-5.6,5l2.6-1.6c0,0.2,0,0.6-1,1.3
							c2.1-0.7,1-0.9,2.8-1.7c-1.8,2.3,2.4,1.1-1.5,4c2.1-1.1,1-1.7,2.8-1.9c-4.1,3.2,1.3,0.3-0.2,2.3c-2.3,1.4-1.6,0-3.1,2
							c4-2.3,0,1.8,1.1,1.8c3-2.1,2,0.2,3.6,0.4c-1,0.7-0.5,2.8-1,4.3l-0.5,0.3c3.1-2,3.1-0.8,4.2-0.6c-1.8,1.2-2.6,1.7-3.6,1.9
							l0.4,0.6c1.1-0.6,1.7-0.7,2.3-0.6l-2.3,1.4c0.7,0.7,3.7-0.4,2.9,1.7c2.1-1.4,5.2-4.9,7.4-4.9c-1.1,0.8-3,2.3-3.6,2.3
							c0.2,0,1.2-0.4,0.8,0.2l-2.2,0.9c-0.5,1,1.8-0.9,1.8-0.4c-1.6,1.1-1,1.1-2.3,1.9c-0.2,0,0.4-0.8-0.3-0.5
							c0,0.6-0.6,1.8-1.7,2.8c0.9-0.7,2.2-1.6,2.6-1.4c0.6,0.7-1.8,1.6-2.3,2.7c1.2-0.6,0.4,0.7,2.8-1c0.1,0.2-1,1.1-1.5,1.6
							c1.3-0.4,1.6,1.6,3.8-0.7l0.1-0.2c0.1,0,0.1,0,0.1,0l0,0l0,0c3.3-0.4,0.5,3.6,2.5,4.2l-0.8,0.6c1.5,0.1,1.7,1.3,3.9,0.6
							c0.2,0.2-1.1,1.6-2.1,2.2c1,0.2,2-0.4,1.2,1.3c-1.8,0.4-1.1,1.1-1.5,0.1c-0.2,1.2-1.3,2.3,1.5,1.6c-2.2,1.2-2.2,2.4-1.3,2.3
							l1.1-1.6c0.6,0.2,0.6,0.7,0.7,1.2l-2.8,1.7c-2.2,3.9,7.6-1.2,2.9,3.9c2.2-0.9,0.7-1.8,3.2-3c0.1,1-3.2,4.5-3.1,4.7
							c-0.8,2,4.6-1.9,4.3-0.2c0.9-0.8,3.4-2.8,4.8-2.7c0.2,1-3.4,3.8-4.5,3.9c-0.2-0.1,0-0.4,0.4-0.6c-0.5,0-1.1,0-2,1.1l1-0.6
							c-0.7,1.1,0.1,1.9-1.7,2.9c1.3-0.1,1.8-0.9,2-1.7c-0.8,1.9,1,1.4,0.7,3.1c0.4-0.5,1.5-1.5,1.6-1.3c-0.2,2.2,2.3-0.7,3.3-0.1
							c-1.1,1.6-3.7,2.3-1.8,2.4c-0.6,1.3-2.5,1.9-3.4,2.3c2.5-0.5-0.1,2.5-0.1,3.2l-1.1,0.1c0.7-0.1,0.8,0.2,1,0.4l1.8-1.6
							c-0.2,0.5,0,0.7-0.8,1.3c1.5-0.6,3.1-2.5,5.2-3.2c-0.7,1.1,1.8,0.3-0.7,2.3c0.1-1.7-2.5,2-3.6,1.3c0.4,0,0.6,0.2,0.4,0.7
							c-0.3,0.2-0.6,0.3-0.8,0.4c-1.5,2.7,3.2-1.6,4-0.4c-1.5,0.9-2.6,2.2-2.1,2.2c-0.3-0.5,2.3-1.9,3.7-2.3
							c-0.6,1.5,1.4,0.2,1.5,0.6l0.2-0.8c1.5-0.9,1.6-0.4,2.4-0.2c-1.1,0.8-1.1,0.1-1.5,0.6c2.9-1.3-1.8,3.1,0.5,2.6
							c-0.7,1.1-2.7,2-3.1,2.8c2.5-0.5-1.3,2.3,0.9,2.1c1.8-1.6,1.2-1.3,3.6-2.1l-2.4-0.5l3.5-1.1c-0.3-0.5-1.9-0.1-1.8-0.6
							c1.9-0.7,1.4-0.4,2.8-1.8c-2.5,2.7,2.5,0,1.1,2.1l-4.8,3.4c-1.4,2.6,3.8,0.1,3.6,2.3l0.5-1c2-1.2,0.9,0.7,2,0.5
							c-1.6,1.1-2,1.8-2.9,2.7c1.2-0.9,0.6,1.1,3.9-1.1l-1.7,2.1c-0.1,1.7,5.5-2,5.7-0.6c-2,0.9-2.8,2.2-4.5,2.4
							c0.2,0.4,0.2,0.9,1.3,0.1c-0.9,0.9,2.9-0.6,1.6,0.9c0.8-0.4,2.5-1.5,2.7-1c-0.3,0.3-0.8,0.6-0.8,0.6c0.8-0.6,1.5-0.1,3-1.8
							c-4.2,4.7,2.5,2.8-1.1,6.8c1.1,0.4,2.3,0.9,2.9,1.6c-0.5,0.3-0.8,0.6-0.7,0.3c-0.8,2,5-2.7,4.2-0.4c-2.2,2.4-1.8,0.4-2.5,1.5
							c-5.2,3.9,1.7,0.8-0.9,3.8l-0.4,0c-1.4,1.9,3-0.1,3.3,1.1c0,0-0.5,0.3-0.8,0.6c3.2-1.3,4.9-0.7,6.3-0.4
							c-2.3,1.2-1.4,0.4-3.4,2.1c0.6,0.2,3.3-2.5,4.4-2.1c-0.9,1.1-1.5,2.4-3.7,4l-0.7-0.7c-2.6,2.5,0.8,0.9,0.6,1.7l-1.3,0.9
							c1.2,0.9,4.4-1.4,5.1,0l0.9-0.8c3.7-1.6-1.4,1.8,1.5,0.8l-3.1,2.5c1.1-0.1,4.2-0.7,5.4-0.3c-2.7,1.2-4.6,1.2-6.4,1.6
							c0.3,0.5,1.3,1.3,3.1,0.4c-0.4,0-1.4,0.4-1-0.1c2.9-1.3,4.7-1.4,5.2-0.5c-6.3,4.3,0.1,3.4-4.3,7.5c3.4-0.1,1.2,3.8,2.9,5.4
							c4.4-4.1,0.5,0.4,5.4-3.2c0.6,0.2,0.7,0.4,0.4,0.7l-2.1,3.4c-1.2,1.3-1.4,0.4-2.5,1.2c0.3,1.2-1.8,1.9-2.7,3.4
							c1.7-1.4,2.8-1.5,2.5-0.5l1.8-2.4c3.6-0.6-3.4,4.1,0.2,3.5l-1.9,0.7c1.4,0,1.7,2.5,6.2,0.3c-0.5,0.5-1.7,1.7-2.3,1.6
							c0.5,2,6.8,0.5,5.2,3.5l-1.3,0.8c0.6,0.1,2.7-1.1,1.7,0.1c-0.5,0.3-1.3,0.8-1.3,0.9c0.5-0.1,2.7-0.7,2.3,0.2l-1.6,0.6
							c-0.5,2.7,5,0,6.8,0.7c-3.6,2.6-3.9,4.6-4,5.6l-0.5,0.3c0.9,2.1,5.2,1,7.8,1.6c-3.1,3.8,0.9,4.7-0.1,7.9
							c0.5-0.7,2.8-1.9,3.4-1.9c-0.4,0.9,3.3-0.7-0.1,1.6l0-0.2c-3,2.6-1.6,2.8-1.2,3.5l4.4-3c-5.1,6.1,5.4,2.7,0.4,7.6
							c1.4-0.4,1.7,0.1,3.1-0.2l-2.3,1.6c0.2,1.5,0.3,2.3,1.8,3.3l-1.8,0.9c0.4,0.9,7.3-3.8,8-3.2l-3.3,2.7c1,1.3-1,4.8,3,3.9
							c-0.5,0.3-1.5,1-1.8,0.9c0.4,0.7-0.6,4.1,4,0.5c-3.1,2.2,0.7,1.6,2.6,1.4l-2.3,1.5c3.3-1.5,4.1-2,5.6-1.7
							c-0.2,0.4-1.7,1.5-1.3,0.8c-0.7,1.5,2.5-1,1.9,0.7l-1.7,0.7c0.3,0.8,1.1,0.2,3-0.6c1.2-0.2,0.4,1.7-1.6,3.3
							c1.3-0.8,3.3-1.6,3-0.8c-0.7,0.6-1.3,0.8-1.6,0.9c-0.7,2.3,3.9-0.1,2.2,2.2c-0.7,0.6-1.1,0.9-1.3,1.1c-0.6-1-1-1.8-0.8-1.8
							c-2.1,1.5-1.9,2.5-5.2,4c2-0.5,6.2-1.9,5.7-0.5c-0.2,0.2-0.3,0.4-0.7,0.6l-0.3,0.1c-0.1,0.3,0.2,0.3,0.7,0.2
							c-0.2,0.5-0.3,0.8-0.2,1.1c-1.7,1.3-0.3,1.5-0.1,1.9c2.3-1.7,2.2-0.9,3.8-2.7c-0.1,0.2-0.3,0.1-0.6-0.1c-0.1,0-0.2-0.1-0.3,0
							c0.1,0,0.2-0.1,0.2-0.1c-0.2-0.2-0.5-0.5-0.8-0.8c1.4-0.5,2.6-0.9,1.6,0.4c1.6-0.9,3.3-1.7,4.1-2.1c-2.8,2.8-3.8,5-5.7,6.5
							c2.1,0.2,2.8,2.1,7.6-0.3c0.8-0.1-1,1.2-1.6,1.9c-0.6,0.1-0.7-0.1-1.3,0.2c1.6-0.1,1.8,1.6,4.9-0.4c-0.8,1.8-3.1,1.5-1.8,2.3
							l-1,0.5c-3.2,5.6,10.2-1.9,5.8,4.9c0.3-0.4,0.4-0.6,0.9-1c-0.7,4.7,6.6,3.9,4.3,9.7c-0.3,1.4,1.7,0.1,3.5-0.4l-2.3,1.9
							l3.4-1.2c2.9-0.3-4.6,6.3,0.4,5l1.5-1.4c0.1,0.8,2.2,1,0.2,2.2c0.3-0.2,1.9-1.1,1.1-0.2l-1.3,0.9l3.1-0.3
							c-0.2,1.7-5.2,3.5-4.4,5.1c0.9,0.2,4.9-1.1,5.6-2c-0.1-0.3,0.4-1.1,1.7-2.1l1,0c3.9-2.6,8-5,9.8-8.1l-2.9,0.8l1.6-1.6l0.6,0.6
							c1.4-1.6-0.3-0.8-1.5-0.3c0.9-0.8,1.5-1.4,1.8-1.8L157,246c1.4-1.2,3.2-1.7,3.6-2.9c-2,0.8-3.1,2.8-4.6,2.9
							c1.4-1.6,2.9-2.5,1.1-1.9c0.9-0.8,1.6-1.1,2.2-1.2c-1.5,0.4-1.3-0.8-3.5,0.4c1.8-1.9-1.6-1,2-3.6c-0.9,0.5-3.4,1.3-3.8,1
							c4.8-2.4-0.8-1.6,3.9-4.7c-4.2,2.2-3.1-0.7-5.9-0.1c0.3-0.2,1-0.5,0.9-0.3c-0.1-0.8,1-1.7,1.5-2.6c-3.2,2.2-4.6,1.9-6.8,2.9
							c2.6-2.8,4-2.3,6.8-4.6c-2.6,1.9-3.4,0.7-5.4,2.5c1.6-1.9,0.6-1.1,3.1-3.2c-4.1,2.8-1,0-3.7,1.4c1.5-2.1,3.6-2.9,1.8-2.8
							C151.3,227.9,153.2,227.6,153.2,227.6z M133,213.9C133,213.9,133,213.9,133,213.9c0.2,0.1,0.4,0.2,0.4,0.3
							C133.4,214.1,133.2,214,133,213.9z M131.9,212.4c0.1,0.2,0.2,0.5,0.4,0.7c-0.8,0.6-1.6,1.1-1.7,0.9
							C131.2,213.8,131.4,213.1,131.9,212.4z M118.4,227c-0.5,0-0.1-0.4,0.3-0.8c0.1,0.1,0.3,0.2,0.6,0.2c0.1-0.1,0.2-0.1,0.3-0.2
							C119.1,226.6,118.7,226.8,118.4,227z"/>
						<path class="st0" d="M121.7,225.3c0.1,0,0.2-0.1,0.2,0c0.2-0.2,0.3-0.4,0.4-0.5c-0.3,0.1-0.5,0.3-0.8,0.4
							C121.6,225.2,121.6,225.3,121.7,225.3z"/>
						<path class="st0" d="M23.8,81.1L23.8,81.1c0,0,0.1-0.1,0.2-0.2C24,81,23.9,81,23.8,81.1z"/>
						<polygon class="st0" points="120.8,187.6 120.2,188.1 120.8,187.8 						"/>
						<path class="st0" d="M25.5,66.9c0.2-0.2,0.4-0.3,0.5-0.5C25.9,66.5,25.7,66.7,25.5,66.9z"/>
						<path class="st0" d="M23.4,62.8l0.4-1.1C23.5,62.3,23.4,62.6,23.4,62.8z"/>
						<path class="st0" d="M22.5,59.1c-0.4,0.2-0.7,0.5-1,0.7c0,0,0,0,0,0L22.5,59.1z"/>
						<path class="st0" d="M57.6,102.7c0,0,0.1,0.1,0.2,0C58.5,102.7,58.2,102.6,57.6,102.7z"/>
						<path class="st0" d="M42.6,93c0.5-0.2,1-0.3,1.4-0.3C44,92.3,43.9,92.1,42.6,93z"/>
						<path class="st0" d="M71.2,115.8C71.2,115.9,71.2,115.9,71.2,115.8c0,0.1,0,0.1,0,0.1L71.2,115.8z"/>
						<path class="st0" d="M44.4,93.3c0.3-0.6,0-0.7-0.4-0.7C44,92.9,43.9,93.3,44.4,93.3z"/>
						<path class="st0" d="M14.6,46v-0.2c-0.1,0.1-0.3,0.2-0.4,0.2L14.6,46z"/>
						<path class="st0" d="M14.3,46l-0.4,0C13.9,46.2,14,46.2,14.3,46z"/>
						<path class="st0" d="M13.1,46.2l0.8-0.1C13.8,46,13.8,45.8,13.1,46.2z"/>
						<path class="st0" d="M16.3,50.5l0.9-0.5C17,50.1,16.7,50.3,16.3,50.5z"/>
						<path class="st0" d="M17.4,51.5c0-0.4,1.3-2,0.5-2L17.1,50C18.5,49.3,15.8,52.3,17.4,51.5z"/>
						<path class="st0" d="M10.5,63.7l0-1.4c-0.8,0.8-1.8,1.9-2.3,1.6C6.4,66.9,10,62.1,10.5,63.7z"/>
						<path class="st0" d="M11.4,67.6c-0.8-0.2-1.3,0.9-1.8,1.2C10.6,68.6,10.9,68.5,11.4,67.6z"/>
						<path class="st0" d="M26.8,89.2l-2.1,1.4C25.3,90.8,25.5,90,26.8,89.2z"/>
						<polygon class="st0" points="40.5,85.6 41.5,84.3 39.5,85.5 						"/>
						<polygon class="st0" points="27.4,98.6 27,98.7 28.2,98.8 						"/>
						<path class="st0" d="M54.1,134.4l2.5-1.9C55.9,132.5,53,134.5,54.1,134.4z"/>
						<path class="st0" d="M67.9,148.2c-1.2,1.1-1.7,2.1-0.2,1.5C67.6,149.2,68.4,148.2,67.9,148.2z"/>
						<polygon class="st0" points="97.3,198.2 96.2,198.5 97.3,198.6 						"/>
					</g>
				</g>
			</g>
		</g>
	</g>
	<g>
		<g>
			<g>
				<g>
					<g>
						<path class="st0" d="M300.4,49.6c-0.6-0.6-2.3-1.7-2.2-1.2l2.5,2.1L300.4,49.6z"/>
						<path class="st0" d="M294,48.1c1,1.3,3.1,3.3,5.7,4.9c-2.3-2.2-1.2-1.5-4-4.1c-0.1-0.5,1.2,0.1,2.2,0.8
							c-0.6-0.6,0.9,0-0.6-1.4c-2.4-1.1-2.8-0.7-1.5,1.1C295.1,49.1,294.5,48.5,294,48.1z"/>
						<path class="st0" d="M268.9,74.4l0.5,0C269.1,74.3,269,74.3,268.9,74.4z"/>
						<path class="st0" d="M254.4,91.5c0-0.2-0.2-0.4-0.4-0.6C254.1,91.1,254.1,91.3,254.4,91.5z"/>
						<path class="st0" d="M249.2,92.5c0.1,0,0.2,0,0.3-0.1C249.2,92.3,249.1,92.3,249.2,92.5z"/>
						<path class="st0" d="M268.9,74.4l-1.2-0.1C268.5,74.9,268.5,74.5,268.9,74.4z"/>
						<path class="st0" d="M297.6,56.8c-0.1-0.2-0.2-0.5-0.5-0.8c0.1,0.2,0.1,0.3,0.1,0.5C297.3,56.5,297.5,56.6,297.6,56.8z"/>
						<path class="st0" d="M272.4,64.8l0.1-0.2c-0.3-0.3-0.6-0.6-1-0.9L272.4,64.8z"/>
						<path class="st0" d="M276.4,58.4c-0.2,0.1,2,1.8,3,2.5c-0.9-0.8-1.3-1.2-1.4-1.4C277.6,59.2,277.1,58.8,276.4,58.4z"/>
						<path class="st0" d="M287.3,51.5l-0.2-0.4C287.2,51.2,287.2,51.4,287.3,51.5z"/>
						<path class="st0" d="M268.8,68.9c-0.4-0.2-0.7-0.4-0.9-0.5C268.2,68.5,268.5,68.7,268.8,68.9z"/>
						<path class="st0" d="M163.2,253c-0.2-0.1-0.3-0.2-0.4-0.3C163,252.9,163.2,253,163.2,253z"/>
						<path class="st0" d="M146.8,252l-0.1-0.2c-0.4-0.3-0.8-0.6-1.3-0.9L146.8,252z"/>
						<path class="st0" d="M242.2,96.1C242.3,96.1,242.3,96.1,242.2,96.1C242.1,95.7,242.1,95.8,242.2,96.1z"/>
						<path class="st0" d="M206.7,149.3c2.5,0.9,1.9,2.8,4.9,3.6C210.6,152.4,208.6,149.6,206.7,149.3z"/>
						<path class="st0" d="M297.2,56.7c0,0.1-0.1,0.2-0.2,0.3C297.2,56.9,297.2,56.8,297.2,56.7z"/>
						<path class="st0" d="M211.6,152.9C211.6,152.9,211.6,152.9,211.6,152.9l0.3,0.1C211.7,152.9,211.7,152.9,211.6,152.9z"/>
						<path class="st0" d="M234.3,110.1c0.4,0.3,0.8,0.4,1.1,0.6C235.1,110.5,234.8,110.3,234.3,110.1z"/>
						<path class="st0" d="M244.5,102.7l-0.5,0C244.3,102.8,244.4,102.7,244.5,102.7z"/>
						<path class="st0" d="M233.9,117.5c-0.3,0-0.6-0.2-0.4,0.2c0.1,0.1,0.2,0.1,0.3,0.1C233.5,117.6,233.4,117.4,233.9,117.5z"/>
						<path class="st0" d="M230.1,122.7c0.2,0.1,0.4,0.2,0.5,0.2c0-0.1,0-0.2,0-0.2L230.1,122.7z"/>
						<path class="st0" d="M173.5,236.2c-0.7-0.3-1.5-0.8-2.2-1.2C173,236,173,237.2,173.5,236.2z"/>
						<path class="st0" d="M296.3,55.8c0.5,0.4,0.8,0.7,0.9,0.9c0-0.1,0-0.2,0-0.3C296.9,56.2,296.5,56,296.3,55.8z"/>
						<path class="st0" d="M251.8,130.6l-0.9,0.6C251.2,131.1,251.6,130.9,251.8,130.6z"/>
						<path class="st0" d="M200.2,198.2l0.1,0.4C200.4,198.5,200.4,198.4,200.2,198.2z"/>
						<path class="st0" d="M249.4,133.9c-0.9-0.4-1.5-0.6-1.9-0.7c0.2,0.2,0.3,0.3,0.5,0.5L249.4,133.9z"/>
						<path class="st0" d="M171.3,234.9C171.3,234.9,171.3,235,171.3,234.9C171.3,235,171.3,234.9,171.3,234.9z"/>
						<path class="st0" d="M172.8,244.3c0.6-0.8-2.7-2.5-4.3-3.9c-0.2-1.6,2.5,1.1,4.3,1.9c-0.4-1.2-2.8-3.6-2.4-3.9
							c0.5,0.3,0.8,0.4,1.3,0.9c-1.9-2.3,1.2-1.9-1.3-4.8c0.3,0.1,0.6,0.3,0.8,0.4c-1.6-1-3.1-2-4.2-2.8c0.2-0.4-1.4-2,0.6-0.8
							c-0.2,0.2,0.6,0.8,1.1,1.3l-0.6-1c3.1,1.7,0.6,1.2,2.7,2.7c-0.4-1.4-2.1-3.9-0.9-3.9c2.9,1.9,0,2,3,3l-1.7,0.1
							c4.8,2.4-0.7,0.3,4.4,3c1.6-0.6-0.5-2.3,1.1-2.8c-1.4-1.4-2.3-1.5-3.7-2.9c-1.6-3.6,7.9,3.7,5-0.1c-1.6-1.6-5-4.2-2.6-3.8
							l2.9,2.5c1.1-0.9-4-3.8-1.1-3.5c1.1,1.1,0.4,1.6,0.9,1.7c3,1-1.4-1.8-1-2.4l2.9,1.9c0.4-1.5-0.7-4.2-0.2-5.9
							c0.8,0.7,1.5,1.5,2.5,1.8c-0.2-2.6,2.8-3.3,5.6-3.7l-2-2.3c0.1-0.1,1.3,0.5,1.6,1c1.4,0-1.5-1.1-2.2-2.1
							c0.1-0.5,1.7,0.5,2.3,1.2c-1.2-2.5-2.1-6.2,1.2-5.5l0.6,0.7c1.6-0.2-4.2-4.5-1.4-3.7l0.3,0.5c2.4-1.2,1.8-4.9,6.4-3.8
							c-3.2-2.7,2.9-0.8-1.8-4.4c3.2,0.6,3.8,1.5,6.5,1.1c0.5-0.3-2.6-2.8-2.7-3.6l2.5,1.8l-2.1-2.6l3.3,1.8l-0.3-0.9
							c-0.3,0.1-1.4-0.4-2.1-0.9c-0.6-1.6,3.1-0.6,4.4,0.3l-0.9-3.3c1,0.8,1.1,1.3,1.6,2c-1.9-2.8,2.8,1.7,1-0.8
							c-0.6-0.3-1.4-1.1-1.9-1.5c1.8,0.6,2.6-0.3,2.4-1.5l1.6,1.4c1.4-1,1.2-3.4,2.2-4.8c-1.2,0-4.1-2.3-4.1-2.9l2.8,1.7
							c-1.4-1.4-1.3-0.3-2.9-2.3c0.7-0.3,3.3,1.8,3.9,2.7l-0.4-1.3c0.8,0.5,1.1,1,2.1,1.7c-1.4-1.4,3.5,0.7,0.9-1.7l0.8,0.5
							c1.1-1.5,0.6-2.8,1.4-4.1c-2.3-1.7-1.4-1.8-3-3.4c1.4-0.4,3.9-0.1,4.4-1.3c-0.6-1.6-1.8-1.6-2.9-2.9c2.1,1.4,2.7,0.2,3.8,1.9
							c0.6-1.5,0.8-1.9,0.2-4.8c-1-0.4-1.5-0.5-2.1-1.1c-0.1-0.5,1.4-0.1,2.3,0.7l0.2,0.2c-1.8-4.1,9.1,0.1,5.8-4.4l0.2,0.2
							l-1.2-3.1c0.9-0.4,1.3,1.5,2.9,1.9c-2.3-4.1,2.3-2.2,1-5.2c6.9,3.4,2.2-4,7.1-2.6l-1.5-0.9c-1.2-1.4,1.1,0.1,1.7,0.1
							c-1.1-0.8-1.6-0.5-2.2-1.3c0.4-4.3,6.6-4.8,10.2-7c1.2-0.9-7-6-2.5-5l2.4,2.3c-1.6-4.6,3.5-4.6,2.4-8.9
							c0.5,0.6,1.3,1.2,1.2,1.4c2.3,0.9,1.4-1.7-0.2-2.9c0.4-0.2,1.5,0.9,2.5,1.3c1.5,0.3-1.6-3,0.5-1.9c0.4,0.2,0.5,0.6,0.6,0.8
							c-0.7-1,1.3-1.3-1.2-2.6c1.7-0.1,0.2-2.3,2-2.1c-2.2-2.2,2.2-0.6-1.2-3.3c3.6,2.7,4,0.6,2.7-1.1c1,1,1.5,0.4,2.9,1.7
							c0.4-0.6,0.1-1.7-1.9-2.9c5.2,2-1.9-4.8,4.2-1.4c-0.7-3.2-0.8-5.9-0.5-8.1c3.6,2.7-0.9,2.1,3,4.8c-0.4-2.6-2.9-5.8-0.9-6.7
							c0.8,0,1.4,1.4,2,1.9c-0.4-2.6,2.5-2.8,1.5-5.6c0.3,0.2,0.6,0.7,0.8,1c0.1-0.4,1-0.2-0.7-1.4l0.3,0.6
							c-2.7-1.3-4.3-4.7-5.5-5.7c4.5,3.9,2.2-0.5,7.7,4.5c-0.2-0.4-0.8-1.2-2-1.9c0.5,0,1.2,0.3,2.3,1.5c-0.2-1.6-2.2-2.6-1.6-3.4
							c0.8,0.6,1,1,1.9,1.8c-1.2-1.6-2.5-3.2-1.3-3.4c0.5,0.4,1.1,0.8,1,1c0.7-1.5-2.6-5.2-0.1-5.5c3.2,2.9,1.5,0.3,4.6,2.4
							l-0.4-1.4l-1.7-0.8c0.5-0.6-1.3-2.8,0.1-2.7l0.9,1.4l0.3-1.7l-1.6-0.1c-1.1-1.8-3.9-2.7-2.4-2.9c0.2,0.4,0.5-0.6,2.5,0.3
							c0,0,0,0,0,0c-0.7-1-1.5-2.1-0.4-2c1.1,0.6,3.3,2.5,4,2.9c-2.3-2.1,0.4-2.1-2-4.4c0.5,0.6,2.1,1.7,2.5,1.9l-1.9-1.8
							c0.9,0.2,1.2,0.3,2.5,1.3c1-0.7-4.1-2.5-1.6-2.4c0.1,0.2,0.4,0.4,0.6,0.8c1.6-0.5,0.2-3.1,2-3.3c3.3,1.9,0.1,1.4,2.9,2.9
							c0.5-1.9-1.5-5.6,0.2-6.5l-0.5,0c-4.2-3.3,2.9,0.5,1.4-1.7c0.2,0.4,2.2,1.9,1.8,1.6c1.4-0.5,0.4-2.7,0-5.2l1,1
							c1.4,0.1,1.6-1.1,2.6-1.3c-1-1-0.5-1.2-2.3-2.1c7.7,2.6-0.8-6,5.7-4c-0.1,0.2,0.6,1.2,0.8,1v-2.2c-2-1.2-1.3-0.6-3-1.4
							c-1-1-1.6-2-1.3-2.4c0.8,1.5,3,2.2,4.3,2.6c-0.6-0.4-1.2-0.9-1.8-1.3c3.9,1.6-3.7-2.8-0.7-2.2l1,0.8c-0.2-0.7-1.3-2-0.7-2.2
							c2.3,1.4,0.7,1.1,2.5,2.4c0.3-0.7-3.3-4.1-0.8-3.1c0.4,0.7,0.2,1,0.6,1.7c3,1.2,2.4,0.7,3.1,0.6h-0.1l1.9-0.2l-0.9-0.2
							c-5.1-4.8,0-2.2-3-5.8c2.8,3.5,1.9,1.6,4.3,3.4c0.9,0.2,1.9,0.4,2.5,1c-1.7-1.9,2.1,0.3-0.3-2.4c0.8,0.5,0.4-0.4,2.4,1.1
							c-0.2-1-1.5-0.8-2.4-1.6c-2-2.9,4.8,0.2,2.1-3.8c-0.7-2.2-3.2-4.4-3.8-6.4c1.5,0.5,2.7,2.4,2.7,2.4c1.6,0.2,1.7-0.3,1.2-1.5
							c0.6,0.6,1.3,0.9,2.3,1.4c0.1-0.6-2.7-2.4-1.1-2.1c0.8,0.7,2.1,1.9,2.9,2.7c-0.4-1-1.5-2.6-1.8-3.7c1.5,0.8,1.9,1.8,2.6,2.7
							c-0.2-1-0.1-2.5-2.2-4.2l-1.1-0.2c0-0.3,2,1.2,2.2,1.7c1.4,1.7-1.3,0.2-2.1-0.3l-0.2-0.7c-4.9-2.9-0.4,2.1-1.2,2.6l-3.2-2.7
							l2.2,2.8c-1-0.5-3-1.7-3.2-2.4c-2.1-0.6,0.9,1.3-1.4,0.5c-0.3-0.2-0.5-0.3-0.6-0.4l0.6,1.3c-0.6-0.6-2.5-1.6-1.7-1.6
							c-2.6-0.4,1.4,3.4-1.4,1.9l-0.1-0.2c0.2,2.2,2.4,1.9,4.6,5l-6.6-3.7l2.4,1.9c-0.2,0.1-0.6,0.2-1.5-0.5
							c1.3,1.7,1.1,0.7,2.5,2.1c-2.7-1-0.2,2.6-4.3-0.1c1.7,1.6,1.9,0.4,2.7,2c-4.4-2.8,0.1,1.3-2.2,0.5c-2.1-1.8-0.5-1.5-2.9-2.3
							c3.5,3-1.7,0.6-1.3,1.6c2.9,2.1,0.4,2,0.8,3.6c-1-0.8-2.8,0.5-4.4,0.5l-0.5-0.4c2.9,2.3,1.7,2.7,1.9,3.8
							c-1.8-1.3-2.4-1.9-3-2.8l-0.4,0.6c0.9,0.8,1.2,1.3,1.3,2l-2.1-1.7c-0.4,0.8,1.5,3.4-0.6,3.3c2,1.5,6.4,3.4,7,5.4
							c-1.1-0.8-3.1-2.1-3.4-2.7c0.1,0.2,0.7,1,0.1,0.8l-1.6-1.8c-1.1-0.2,1.4,1.4,1,1.6c-1.6-1.2-1.3-0.6-2.6-1.5
							c-0.1-0.2,0.9,0.2,0.4-0.4c-0.6,0.2-1.9,0-3.2-0.7c0.9,0.6,2.2,1.6,2.2,2c-0.4,0.8-2.1-1.1-3.3-1.3c1,1-0.5,0.6,1.9,2.4
							c-0.2,0.2-1.3-0.6-2-0.9c0.8,1.2-1,2,1.9,3.4l0.2,0c0,0.1,0,0.1,0.1,0.1l0,0l0,0c1.5,3-3.2,1.7-3.1,3.7l-0.8-0.6
							c0.4,1.4-0.7,2.1,0.7,3.8c-0.2,0.2-1.8-0.5-2.7-1.3c0.2,1,1,1.7-0.9,1.6c-1-1.6-1.4-0.7-0.6-1.3c-1.2,0.3-2.6-0.5-1,1.9
							c-1.9-1.7-3-1.3-2.6-0.5l1.9,0.5c0,0.6-0.4,0.8-0.9,1.1l-2.5-2.1c-4.4-0.8,3.6,6.8-2.7,4c1.6,1.8,1.9,0.1,3.9,2.1
							c-0.9,0.4-5.3-1.6-5.4-1.4c-2.2-0.1,3.3,3.7,1.6,4c1.1,0.6,3.7,2.3,4.1,3.7c-0.9,0.4-4.7-2-5.1-3c0-0.2,0.4-0.1,0.7,0.2
							c-0.2-0.5-0.4-1.1-1.6-1.5l0.9,0.8c-1.2-0.3-1.8,0.7-3.2-0.7c0.5,1.2,1.4,1.4,2.2,1.3c-2.1-0.1-1.1,1.4-2.7,1.7
							c0.6,0.2,1.9,0.9,1.8,1.1c-2.2,0.5,1.4,1.9,1.2,3.1c-1.9-0.5-3.4-2.7-2.8-0.9c-1.4-0.1-2.6-1.7-3.3-2.5c1.2,2.2-2.4,0.7-3.1,1
							l-0.5-1c0.3,0.6,0.1,0.8-0.1,1l2.1,1.1c-0.5,0-0.7,0.2-1.5-0.3c1.1,1.2,3.4,2.1,4.7,3.9c-1.2-0.3,0.3,1.8-2.4,0.1
							c1.7-0.5-2.7-1.7-2.4-2.9c0.2,0.4,0,0.6-0.5,0.6c-0.3-0.2-0.5-0.4-0.6-0.6c-3-0.6,2.6,2.6,1.7,3.6c-1.4-1.2-2.9-1.7-2.7-1.3
							c0.3-0.4,2.6,1.5,3.4,2.7c-1.6-0.1,0.3,1.4-0.1,1.6l0.8,0c1.3,1.2,0.9,1.4,1,2.2c-1.1-0.8-0.5-1-1.1-1.2
							c2.1,2.4-3.5-0.7-2.3,1.3c-1.2-0.3-2.7-1.9-3.6-2.1c1.3,2.2-2.6-0.5-1.7,1.5c2.1,1.1,1.7,0.8,3.1,2.7l-0.3-2.4l2.1,3
							c0.3-0.4-0.6-1.8,0-1.8c1.3,1.6,0.8,1.2,2.6,2.1c-3.3-1.5,0.8,2.4-1.6,1.7l-4.8-3.4c-2.9-0.5,1.1,3.6-1.1,4.1l1.1,0.2
							c1.8,1.6-0.3,1,0.1,2c-1.6-1.2-2.4-1.3-3.5-1.8c1.2,0.8-0.8,0.9,2.3,3.3l-2.6-0.9c-1.6,0.5,3.7,4.5,2.4,5.2
							c-1.5-1.6-3-1.9-3.7-3.5c-0.3,0.3-0.8,0.4,0.3,1.2c-1.1-0.5,1.5,2.5-0.3,1.8c0.6,0.7,2.2,1.9,1.8,2.2
							c-0.4-0.2-0.8-0.6-0.8-0.6c0.8,0.6,0.6,1.4,2.7,2.3c-5.8-2.5-1.8,3.3-6.8,1.2c0,1.2-0.2,2.5-0.6,3.2c-0.4-0.4-0.8-0.6-0.5-0.6
							c-2.2-0.1,4.2,3.9,1.7,3.8c-3-1.3-1-1.6-2.2-1.9c-5.4-3.6-0.2,1.8-3.8,0.4l-0.2-0.4c-2.2-0.7,1,2.8,0,3.5c0,0-0.4-0.4-0.8-0.6
							c2.2,2.6,2.3,4.4,2.4,5.8c-1.9-1.8-0.8-1.2-3-2.5c0,0.6,3.5,2.3,3.5,3.5c-1.3-0.6-2.7-0.7-5-2.2l0.4-0.8
							c-3.2-1.7-0.6,1-1.4,1.1l-1.2-1c-0.4,1.4,2.8,3.7,1.7,4.8l1.1,0.6c2.7,2.9-2.2-0.7-0.3,1.6l-3.4-2.1c0.5,1,2,3.8,2,5
							c-2.1-2.1-2.6-4-3.6-5.6c-0.3,0.4-0.8,1.7,0.6,3c-0.2-0.4-0.8-1.2-0.2-1c2.1,2.4,2.9,3.9,2.2,4.8c-6.1-4.6-3.2,1.2-8.5-1.6
							c1.2,3.2-3.2,2.4-4.1,4.5c5.3,2.8-0.2,0.6,4.8,4.1c0,0.6-0.2,0.8-0.5,0.6l-3.9-0.8c-1.7-0.7-0.8-1.2-1.9-1.9
							c-1,0.6-2.4-1.1-4.1-1.4c1.9,1.1,2.3,2.1,1.3,2.2l2.8,0.9c1.7,3.2-5-1.9-3.3,1.3l-1.3-1.5c0.4,1.3-1.8,2.4,1.7,6
							c-0.7-0.3-2.1-1.1-2.3-1.7c-1.7,1.2,1.7,6.6-1.6,6.1l-1.1-1c0.1,0.6,1.9,2.1,0.4,1.6c-0.5-0.4-1.1-1-1.3-0.9
							c0.3,0.5,1.6,2.3,0.6,2.2l-1.1-1.3c-2.7,0.4,1.6,4.8,1.5,6.7c-3.6-2.6-5.6-2.2-6.6-2l-0.5-0.4c-1.7,1.5,0.8,5.2,1,7.9
							c-4.6-1.7-4.1,2.4-7.5,2.5c0.8,0.2,2.8,2,2.9,2.6c-1-0.1,1.7,2.9-1.5,0.4l0.2-0.1c-3.4-2-3.1-0.6-3.7,0l4.2,3.2
							c-7.4-2.8-0.8,6-7,2.9c0.8,1.2,0.4,1.6,1.2,2.8l-2.3-1.7c-1.4,0.7-2.1,1-2.5,2.8l-1.4-1.5c-0.7,0.7,5.9,5.7,5.6,6.5l-3.6-2.2
							c-0.9,1.4-4.9,0.6-2.7,4.1c-0.5-0.4-1.4-1.1-1.4-1.4c-0.5,0.6-4.1,0.8,0.8,3.9c-3.1-2.2-1.3,1.2-0.5,2.9l-2.2-1.7
							c2.5,2.7,3.2,3.3,3.4,4.7c-0.4,0-1.9-1.1-1.2-1c-1.7-0.2,1.8,2.1,0,2l-1.2-1.3c-0.7,0.6,0.1,1.1,1.6,2.7
							c0.6,1.1-1.5,0.9-3.6-0.4c1.2,1,2.6,2.6,1.7,2.6c-0.8-0.5-1.2-1-1.4-1.2c-2.4,0.1,1.4,3.6-1.4,2.8c-0.8-0.5-1.2-0.7-1.4-0.8
							c0.7-0.9,1.4-1.5,1.5-1.4c-2.1-1.5-3-1-5.4-3.7c1.1,1.7,3.8,5.2,2.3,5.2c-0.2-0.1-0.4-0.2-0.8-0.4l-0.2-0.2
							c-0.3,0-0.2,0.3,0,0.7c-0.5,0-0.9-0.1-1.1,0.1c-1.8-1.1-1.5,0.2-1.9,0.5c2.3,1.6,1.6,1.8,3.8,2.7c-0.2-0.1-0.2-0.3-0.1-0.6
							c0-0.1,0-0.2-0.1-0.3c0.1,0.1,0.1,0.1,0.2,0.2c0.1-0.3,0.3-0.6,0.5-1c0.9,1.1,1.7,2.1,0.1,1.6c1.3,1.2,2.7,2.5,3.3,3.2
							c-3.6-1.8-6-2-8-3.3c0.5,2.1-1.1,3.3,2.7,7.1c0.3,0.7-1.5-0.5-2.3-0.9c-0.3-0.5-0.1-0.7-0.6-1.2c0.6,1.4-0.9,2.2,1.9,4.5
							c-1.9-0.1-2.4-2.4-2.8-1l-0.8-0.8c-6.4-1.2,5.1,9.1-2.8,7.1c0.5,0.1,0.7,0.1,1.3,0.5c-4.7,0.8-1.6,7.6-7.8,7.2
							c-1.4,0.2,0.4,1.6,1.6,3.1l-2.6-1.6l2.2,2.8c1.2,2.6-7.5-2.3-4.6,2l1.8,1c-0.7,0.3-0.2,2.4-2.1,0.9c0.3,0.3,1.6,1.4,0.6,1
							l-1.3-0.9l1.3,2.9c-1.6,0.3-5-3.8-6.3-2.5c0.1,0.9,2.6,4.2,3.6,4.6c0.2-0.2,1.2,0,2.5,0.9l0.3,1c3.7,2.8,7.3,6,10.9,6.6
							l-1.7-2.5l2,1l-0.4,0.8c2,0.8,0.7-0.5-0.2-1.6c1,0.6,1.8,1,2.3,1.1l-3-3.4c1.6,1,2.7,2.5,3.9,2.5c-1.4-1.6-3.6-2-4.2-3.4
							c2,0.8,3.3,1.9,2.2,0.4c1,0.6,1.6,1.2,1.9,1.7c-0.9-1.3,0.3-1.5-1.6-3.1c2.4,1.1,0.5-1.8,4,0.8c-0.8-0.8-2.3-2.8-2.1-3.2
							c3.8,3.8,1.3-1.3,5.8,2.2c-3.5-3.3-0.4-3.1-1.8-5.6c0.3,0.3,0.8,0.8,0.6,0.8c0.7-0.3,2,0.4,2.9,0.6c-3.1-2.3-3.3-3.7-4.9-5.5
							c3.5,1.6,3.5,3.1,6.6,5c-2.6-1.8-1.8-3-4.1-4.3c2.2,0.9,1.2,0.2,4.1,1.9c-3.9-2.9-0.4-0.9-2.5-3.1c2.5,0.7,3.9,2.5,3.2,0.8
							C171.9,242.6,172.8,244.3,172.8,244.3z M179.2,220.8C179.2,220.8,179.2,220.8,179.2,220.8c0,0.2-0.1,0.4-0.1,0.5
							C179.1,221.2,179.1,221.1,179.2,220.8z M180.3,219.2c-0.2,0.1-0.4,0.4-0.6,0.6c-0.8-0.5-1.6-1.1-1.4-1.3
							C178.7,219,179.4,219,180.3,219.2z M162,211.2c-0.1-0.5,0.4-0.2,0.9,0.1c0,0.1-0.1,0.3,0,0.6c0.1,0.1,0.2,0.1,0.3,0.2
							C162.7,211.8,162.3,211.4,162,211.2z"/>
						<path class="st0" d="M164.7,213.8c0,0.1,0.1,0.2,0.1,0.2c0.2,0.1,0.4,0.2,0.6,0.2c-0.2-0.2-0.4-0.4-0.6-0.6
							C164.8,213.7,164.7,213.7,164.7,213.8z"/>
						<path class="st0" d="M269.4,74.4L269.4,74.4c0,0,0.1,0.1,0.3,0.2C269.6,74.5,269.5,74.5,269.4,74.4z"/>
						<polygon class="st0" points="200.1,200.7 199.5,200.3 199.9,200.8 						"/>
						<path class="st0" d="M283.4,71.4c0.2,0.1,0.4,0.2,0.7,0.3C283.9,71.6,283.7,71.5,283.4,71.4z"/>
						<path class="st0" d="M286.6,68.1l1.2,0.1C287.1,68,286.8,68,286.6,68.1z"/>
						<path class="st0" d="M289.7,66c-0.4-0.3-0.7-0.6-0.9-0.8c0,0,0,0,0,0L289.7,66z"/>
						<path class="st0" d="M259.9,113.4c0,0.1,0,0.1,0,0.2C260.2,114.2,260.2,113.9,259.9,113.4z"/>
						<path class="st0" d="M264.3,96.1c0.3,0.4,0.6,0.9,0.8,1.2C265.4,97.2,265.5,97,264.3,96.1z"/>
						<path class="st0" d="M251.9,130.5C251.9,130.5,251.9,130.5,251.9,130.5c0,0-0.1,0-0.1,0.1L251.9,130.5z"/>
						<path class="st0" d="M264.5,97.9c0.6,0.1,0.7-0.2,0.5-0.6C264.7,97.4,264.3,97.4,264.5,97.9z"/>
						<path class="st0" d="M299.6,54.4l0.2-0.1c-0.1-0.1-0.3-0.2-0.4-0.3L299.6,54.4z"/>
						<path class="st0" d="M299.5,54l-0.2-0.3C299.2,53.7,299.2,53.8,299.5,54z"/>
						<path class="st0" d="M299,52.9l0.4,0.7C299.4,53.6,299.6,53.5,299,52.9z"/>
						<path class="st0" d="M295.9,57.4l0.8,0.6C296.5,57.9,296.2,57.7,295.9,57.4z"/>
						<path class="st0" d="M295.3,58.7c0.4-0.1,2.3,0.6,2-0.2l-0.6-0.5C297.8,59.1,294.1,57.5,295.3,58.7z"/>
						<path class="st0" d="M281.6,56.2l1.4-0.5c-1-0.5-2.4-1.1-2.2-1.7C277.2,53.4,282.9,55.2,281.6,56.2z"/>
						<path class="st0" d="M278.2,58.3c0-0.8-1.3-0.9-1.8-1.3C277,57.9,277.1,58.1,278.2,58.3z"/>
						<path class="st0" d="M262.7,79.9l-2-1.5C260.7,78.9,261.5,78.9,262.7,79.9z"/>
						<polygon class="st0" points="270.5,91.7 272.1,92.2 270.3,90.7 						"/>
						<polygon class="st0" points="254,83.5 253.8,83.2 254.1,84.4 						"/>
						<path class="st0" d="M228.8,120.4l2.6,1.7C231.2,121.5,228.3,119.4,228.8,120.4z"/>
						<path class="st0" d="M220.2,137.9c-1.4-0.7-2.5-0.9-1.5,0.3C219.2,137.9,220.4,138.3,220.2,137.9z"/>
						<polygon class="st0" points="182.5,181.9 181.8,181 182.1,182.1 						"/>
					</g>
				</g>
			</g>
		</g>
	</g>
</g>
</svg>
